<svg width="40" height="76" viewBox="0 0 40 76" fill="none" xmlns="http://www.w3.org/2000/svg">
<path id="Combined shape 1313" fill-rule="evenodd" clip-rule="evenodd" d="M19.4999 7.6e-05C22.5374 7.6e-05 24.9999 2.46248 24.9999 5.49997V7.49991C24.9999 7.64218 24.9945 7.78319 24.9839 7.92274C29.6802 8.95415 33.2504 11.4104 35.6927 15.2933C37.4634 18.1078 36.2172 21.8456 33.1418 23.1083C30.7276 24.0996 27.9426 23.2237 26.5457 21.0186C24.7575 18.1953 22.4372 16.7835 19.5771 16.7835C17.5719 16.7835 15.9618 17.399 14.7547 18.629C13.5398 19.8595 12.9327 21.3537 12.9327 23.1045C12.9327 24.8916 13.518 26.2613 14.6888 27.2207C15.8525 28.173 18.3621 29.352 22.1969 30.7659C26.4118 32.3039 29.7192 33.7612 32.112 35.1308C34.5119 36.5008 36.4216 38.3977 37.856 40.8073C39.283 43.2246 39.9998 46.0441 39.9998 49.2738C39.9994 54.232 38.5216 58.3629 35.5726 61.6662C32.9974 64.5572 29.4234 66.4096 24.8508 67.2228C24.9483 67.6327 24.9999 68.0604 24.9999 68.5002V70.5C24.9999 73.5376 22.5374 76 19.4999 76C16.4625 76 14 73.5376 14 70.5V68.5002C14 68.1039 14.0419 67.7175 14.1215 67.345C7.80877 66.3011 3.28682 63.005 0.55128 57.462C-0.95324 54.4139 0.76076 50.751 4.04936 49.8933L4.46412 49.7851C6.94704 49.1373 9.5556 50.3223 10.6704 52.6343C12.3223 56.0589 15.2738 57.7697 19.5254 57.7697C22.1961 57.7697 24.1721 57.1103 25.4304 55.7848C26.6888 54.4592 27.3184 52.8626 27.3184 50.9876C27.3184 49.0465 26.6888 47.5743 25.4304 46.5782C24.1721 45.575 21.3695 44.3076 17.0303 42.7696C13.13 41.415 10.0788 40.0816 7.88332 38.7488C5.68784 37.4305 3.90252 35.5773 2.534 33.197C1.16588 30.809 0.47828 28.0258 0.47828 24.8616C0.47828 20.7088 1.70744 16.9662 4.1516 13.6407C6.32607 10.6894 9.61243 8.75761 14.0107 7.84652C14.0036 7.7319 14 7.61633 14 7.49991V5.49997C14 2.46248 16.4625 7.6e-05 19.4999 7.6e-05Z" fill="white"/>
</svg>
